<?xml version="1.0" standalone="no"?>
<!DOCTYPE svg PUBLIC "-//W3C//DTD SVG 20010904//EN"
 "http://www.w3.org/TR/2001/REC-SVG-20010904/DTD/svg10.dtd">
<svg version="1.0" xmlns="http://www.w3.org/2000/svg"
 width="30px" height="30px" viewBox="0 0 512.000000 512.000000"
 preserveAspectRatio="xMidYMid meet">

<g transform="translate(0.000000,512.000000) scale(0.100000,-0.100000)"
fill="#d6d6d6" stroke="none">
<path d="M2518 3328 l-3 -1793 -23 -65 c-35 -95 -84 -170 -156 -238 -186 -174
-471 -200 -684 -63 -61 39 -149 131 -185 192 -143 245 -74 569 156 733 36 25
95 58 133 73 63 25 81 27 199 27 126 0 133 -1 250 -42 65 -23 120 -42 122 -42
2 0 3 256 3 569 l0 569 -135 17 c-254 33 -523 12 -758 -61 -117 -36 -346 -152
-457 -231 -121 -87 -296 -262 -383 -383 -77 -108 -183 -317 -221 -435 -108
-335 -110 -684 -4 -1015 168 -525 614 -944 1157 -1086 327 -85 689 -67 1008
52 503 186 891 617 1024 1136 46 181 49 245 49 1081 l0 787 98 -49 c322 -161
630 -231 1013 -231 l149 0 0 534 0 534 -62 6 c-35 3 -110 8 -167 11 -128 7
-194 19 -296 52 -371 119 -647 433 -721 821 -8 40 -14 125 -14 187 0 62 -3
120 -6 129 -6 14 -63 16 -545 16 l-539 0 -2 -1792z m802 1463 c0 -48 56 -251
93 -338 152 -357 445 -633 810 -762 93 -32 264 -71 316 -71 l31 0 0 -245 0
-245 -47 6 c-272 30 -483 91 -694 200 -112 58 -219 129 -381 255 -71 54 -130
99 -133 99 -3 0 -5 -482 -5 -1071 0 -1189 0 -1190 -65 -1385 -60 -179 -149
-337 -267 -469 -256 -287 -584 -444 -968 -461 -296 -14 -575 65 -829 233 -166
111 -358 328 -451 512 -103 206 -155 488 -131 716 36 332 167 602 405 833 254
247 581 382 924 382 l102 0 0 -239 0 -238 -122 -5 c-101 -5 -140 -11 -218 -37
-282 -92 -498 -322 -576 -616 -14 -53 -18 -104 -18 -210 1 -123 4 -151 28
-230 108 -357 413 -600 781 -622 241 -14 477 74 650 242 114 110 186 235 239
410 21 70 21 78 24 1728 l2 1657 250 0 250 0 0 -29z"/>
</g>
</svg>
